<mxfile host="app.diagrams.net" agent="Mozilla/5.0 (Windows NT 10.0; Win64; x64; rv:138.0) Gecko/20100101 Firefox/138.0" version="27.0.1">
  <diagram name="Page-1" id="ZLyiaKGlVCKIiCFWval2">
    <mxGraphModel dx="1365" dy="736" grid="1" gridSize="10" guides="1" tooltips="1" connect="1" arrows="1" fold="1" page="1" pageScale="1" pageWidth="1169" pageHeight="827" math="0" shadow="0">
      <root>
        <mxCell id="0" />
        <mxCell id="1" parent="0" />
        <mxCell id="o3mQSDozofzcP6N2_7Sw-1" value="" style="rounded=0;whiteSpace=wrap;html=1;fillColor=none;dashed=1;" vertex="1" parent="1">
          <mxGeometry x="81" y="193" width="180" height="520" as="geometry" />
        </mxCell>
        <mxCell id="o3mQSDozofzcP6N2_7Sw-2" value="Sources" style="rounded=0;whiteSpace=wrap;html=1;fontSize=19;strokeColor=none;" vertex="1" parent="1">
          <mxGeometry x="111" y="163" width="120" height="60" as="geometry" />
        </mxCell>
        <mxCell id="o3mQSDozofzcP6N2_7Sw-21" style="edgeStyle=orthogonalEdgeStyle;rounded=0;orthogonalLoop=1;jettySize=auto;html=1;entryX=0;entryY=0.5;entryDx=0;entryDy=0;" edge="1" parent="1" source="o3mQSDozofzcP6N2_7Sw-3" target="o3mQSDozofzcP6N2_7Sw-9">
          <mxGeometry relative="1" as="geometry" />
        </mxCell>
        <mxCell id="o3mQSDozofzcP6N2_7Sw-3" value="CRM" style="image;aspect=fixed;html=1;points=[];align=center;fontSize=15;image=img/lib/azure2/general/Folder_Blank.svg;fontStyle=1" vertex="1" parent="1">
          <mxGeometry x="137" y="363" width="69" height="56.00000000000001" as="geometry" />
        </mxCell>
        <mxCell id="o3mQSDozofzcP6N2_7Sw-24" style="edgeStyle=orthogonalEdgeStyle;rounded=0;orthogonalLoop=1;jettySize=auto;html=1;entryX=0;entryY=0.5;entryDx=0;entryDy=0;" edge="1" parent="1" source="o3mQSDozofzcP6N2_7Sw-4" target="o3mQSDozofzcP6N2_7Sw-12">
          <mxGeometry relative="1" as="geometry" />
        </mxCell>
        <mxCell id="o3mQSDozofzcP6N2_7Sw-25" style="edgeStyle=orthogonalEdgeStyle;rounded=0;orthogonalLoop=1;jettySize=auto;html=1;entryX=0;entryY=0.5;entryDx=0;entryDy=0;" edge="1" parent="1" source="o3mQSDozofzcP6N2_7Sw-4" target="o3mQSDozofzcP6N2_7Sw-11">
          <mxGeometry relative="1" as="geometry" />
        </mxCell>
        <mxCell id="o3mQSDozofzcP6N2_7Sw-26" style="edgeStyle=orthogonalEdgeStyle;rounded=0;orthogonalLoop=1;jettySize=auto;html=1;entryX=0;entryY=0.5;entryDx=0;entryDy=0;" edge="1" parent="1" source="o3mQSDozofzcP6N2_7Sw-4" target="o3mQSDozofzcP6N2_7Sw-13">
          <mxGeometry relative="1" as="geometry" />
        </mxCell>
        <mxCell id="o3mQSDozofzcP6N2_7Sw-4" value="ERP" style="image;aspect=fixed;html=1;points=[];align=center;fontSize=15;image=img/lib/azure2/general/Folder_Blank.svg;fontStyle=1" vertex="1" parent="1">
          <mxGeometry x="136.5" y="565" width="69" height="56.00000000000001" as="geometry" />
        </mxCell>
        <mxCell id="o3mQSDozofzcP6N2_7Sw-5" value="" style="rounded=1;whiteSpace=wrap;html=1;fillColor=none;strokeColor=#CD7F32;arcSize=4;" vertex="1" parent="1">
          <mxGeometry x="350" y="243" width="203" height="470" as="geometry" />
        </mxCell>
        <mxCell id="o3mQSDozofzcP6N2_7Sw-6" value="Bronze Layer" style="rounded=1;whiteSpace=wrap;html=1;fontSize=19;strokeColor=#CD7F32;fillColor=light-dark(#CD7F32,#CD7F32);fontStyle=1" vertex="1" parent="1">
          <mxGeometry x="350" y="193" width="201" height="40" as="geometry" />
        </mxCell>
        <mxCell id="o3mQSDozofzcP6N2_7Sw-35" style="edgeStyle=orthogonalEdgeStyle;rounded=0;orthogonalLoop=1;jettySize=auto;html=1;" edge="1" parent="1" source="o3mQSDozofzcP6N2_7Sw-7" target="o3mQSDozofzcP6N2_7Sw-29">
          <mxGeometry relative="1" as="geometry" />
        </mxCell>
        <mxCell id="o3mQSDozofzcP6N2_7Sw-7" value="crm_sales_details" style="rounded=1;whiteSpace=wrap;html=1;fontSize=17;strokeColor=#CD7F32;fillColor=light-dark(#CD7F32,#CD7F32);" vertex="1" parent="1">
          <mxGeometry x="361" y="321" width="181" height="40" as="geometry" />
        </mxCell>
        <mxCell id="o3mQSDozofzcP6N2_7Sw-36" style="edgeStyle=orthogonalEdgeStyle;rounded=0;orthogonalLoop=1;jettySize=auto;html=1;entryX=0;entryY=0.5;entryDx=0;entryDy=0;" edge="1" parent="1" source="o3mQSDozofzcP6N2_7Sw-9" target="o3mQSDozofzcP6N2_7Sw-30">
          <mxGeometry relative="1" as="geometry" />
        </mxCell>
        <mxCell id="o3mQSDozofzcP6N2_7Sw-9" value="crm_cust_info" style="rounded=1;whiteSpace=wrap;html=1;fontSize=17;strokeColor=#CD7F32;fillColor=light-dark(#CD7F32,#CD7F32);" vertex="1" parent="1">
          <mxGeometry x="361" y="371" width="181" height="40" as="geometry" />
        </mxCell>
        <mxCell id="o3mQSDozofzcP6N2_7Sw-37" style="edgeStyle=orthogonalEdgeStyle;rounded=0;orthogonalLoop=1;jettySize=auto;html=1;" edge="1" parent="1" source="o3mQSDozofzcP6N2_7Sw-10" target="o3mQSDozofzcP6N2_7Sw-31">
          <mxGeometry relative="1" as="geometry" />
        </mxCell>
        <mxCell id="o3mQSDozofzcP6N2_7Sw-10" value="crm_prod_info" style="rounded=1;whiteSpace=wrap;html=1;fontSize=17;strokeColor=#CD7F32;fillColor=light-dark(#CD7F32,#CD7F32);" vertex="1" parent="1">
          <mxGeometry x="361" y="422" width="181" height="40" as="geometry" />
        </mxCell>
        <mxCell id="o3mQSDozofzcP6N2_7Sw-38" style="edgeStyle=orthogonalEdgeStyle;rounded=0;orthogonalLoop=1;jettySize=auto;html=1;" edge="1" parent="1" source="o3mQSDozofzcP6N2_7Sw-11" target="o3mQSDozofzcP6N2_7Sw-32">
          <mxGeometry relative="1" as="geometry" />
        </mxCell>
        <mxCell id="o3mQSDozofzcP6N2_7Sw-11" value="erp_cust_az12" style="rounded=1;whiteSpace=wrap;html=1;fontSize=17;strokeColor=#CD7F32;fillColor=light-dark(#CD7F32,#CD7F32);" vertex="1" parent="1">
          <mxGeometry x="361" y="523" width="181" height="40" as="geometry" />
        </mxCell>
        <mxCell id="o3mQSDozofzcP6N2_7Sw-39" style="edgeStyle=orthogonalEdgeStyle;rounded=0;orthogonalLoop=1;jettySize=auto;html=1;" edge="1" parent="1" source="o3mQSDozofzcP6N2_7Sw-12" target="o3mQSDozofzcP6N2_7Sw-33">
          <mxGeometry relative="1" as="geometry" />
        </mxCell>
        <mxCell id="o3mQSDozofzcP6N2_7Sw-12" value="erp_loc_a101" style="rounded=1;whiteSpace=wrap;html=1;fontSize=17;strokeColor=#CD7F32;fillColor=light-dark(#CD7F32,#CD7F32);" vertex="1" parent="1">
          <mxGeometry x="361" y="573" width="181" height="40" as="geometry" />
        </mxCell>
        <mxCell id="o3mQSDozofzcP6N2_7Sw-40" style="edgeStyle=orthogonalEdgeStyle;rounded=0;orthogonalLoop=1;jettySize=auto;html=1;" edge="1" parent="1" source="o3mQSDozofzcP6N2_7Sw-13" target="o3mQSDozofzcP6N2_7Sw-34">
          <mxGeometry relative="1" as="geometry" />
        </mxCell>
        <mxCell id="o3mQSDozofzcP6N2_7Sw-13" value="erp_px_cat_g1v2" style="rounded=1;whiteSpace=wrap;html=1;fontSize=17;strokeColor=#CD7F32;fillColor=light-dark(#CD7F32,#CD7F32);" vertex="1" parent="1">
          <mxGeometry x="361" y="624" width="181" height="40" as="geometry" />
        </mxCell>
        <mxCell id="o3mQSDozofzcP6N2_7Sw-22" style="edgeStyle=orthogonalEdgeStyle;rounded=0;orthogonalLoop=1;jettySize=auto;html=1;entryX=0.054;entryY=0.213;entryDx=0;entryDy=0;entryPerimeter=0;" edge="1" parent="1" source="o3mQSDozofzcP6N2_7Sw-3" target="o3mQSDozofzcP6N2_7Sw-5">
          <mxGeometry relative="1" as="geometry" />
        </mxCell>
        <mxCell id="o3mQSDozofzcP6N2_7Sw-23" style="edgeStyle=orthogonalEdgeStyle;rounded=0;orthogonalLoop=1;jettySize=auto;html=1;entryX=0.054;entryY=0.426;entryDx=0;entryDy=0;entryPerimeter=0;" edge="1" parent="1" source="o3mQSDozofzcP6N2_7Sw-3" target="o3mQSDozofzcP6N2_7Sw-5">
          <mxGeometry relative="1" as="geometry" />
        </mxCell>
        <mxCell id="o3mQSDozofzcP6N2_7Sw-27" value="" style="rounded=1;whiteSpace=wrap;html=1;fillColor=none;strokeColor=#C0C0C0;arcSize=4;" vertex="1" parent="1">
          <mxGeometry x="629" y="243" width="203" height="470" as="geometry" />
        </mxCell>
        <mxCell id="o3mQSDozofzcP6N2_7Sw-28" value="Silver Layer" style="rounded=1;whiteSpace=wrap;html=1;fontSize=19;strokeColor=#C0C0C0;fillColor=#C0C0C0;fontStyle=1" vertex="1" parent="1">
          <mxGeometry x="629" y="193" width="201" height="40" as="geometry" />
        </mxCell>
        <mxCell id="o3mQSDozofzcP6N2_7Sw-29" value="crm_sales_details" style="rounded=1;whiteSpace=wrap;html=1;fontSize=17;strokeColor=#C0C0C0;fillColor=#C0C0C0;" vertex="1" parent="1">
          <mxGeometry x="640" y="321" width="181" height="40" as="geometry" />
        </mxCell>
        <mxCell id="o3mQSDozofzcP6N2_7Sw-30" value="crm_cust_info" style="rounded=1;whiteSpace=wrap;html=1;fontSize=17;strokeColor=#C0C0C0;fillColor=#C0C0C0;" vertex="1" parent="1">
          <mxGeometry x="640" y="371" width="181" height="40" as="geometry" />
        </mxCell>
        <mxCell id="o3mQSDozofzcP6N2_7Sw-31" value="crm_prod_info" style="rounded=1;whiteSpace=wrap;html=1;fontSize=17;strokeColor=#C0C0C0;fillColor=#C0C0C0;" vertex="1" parent="1">
          <mxGeometry x="640" y="422" width="181" height="40" as="geometry" />
        </mxCell>
        <mxCell id="o3mQSDozofzcP6N2_7Sw-32" value="erp_cust_az12" style="rounded=1;whiteSpace=wrap;html=1;fontSize=17;strokeColor=#C0C0C0;fillColor=#C0C0C0;" vertex="1" parent="1">
          <mxGeometry x="640" y="523" width="181" height="40" as="geometry" />
        </mxCell>
        <mxCell id="o3mQSDozofzcP6N2_7Sw-33" value="erp_loc_a101" style="rounded=1;whiteSpace=wrap;html=1;fontSize=17;strokeColor=#C0C0C0;fillColor=#C0C0C0;" vertex="1" parent="1">
          <mxGeometry x="640" y="573" width="181" height="40" as="geometry" />
        </mxCell>
        <mxCell id="o3mQSDozofzcP6N2_7Sw-34" value="erp_px_cat_g1v2" style="rounded=1;whiteSpace=wrap;html=1;fontSize=17;strokeColor=#C0C0C0;fillColor=#C0C0C0;" vertex="1" parent="1">
          <mxGeometry x="640" y="624" width="181" height="40" as="geometry" />
        </mxCell>
        <mxCell id="o3mQSDozofzcP6N2_7Sw-41" value="Data Flow Diagram" style="text;html=1;align=center;verticalAlign=middle;whiteSpace=wrap;rounded=0;fontSize=30;fontStyle=1" vertex="1" parent="1">
          <mxGeometry x="81" y="60" width="320" height="40" as="geometry" />
        </mxCell>
        <mxCell id="o3mQSDozofzcP6N2_7Sw-42" value="" style="rounded=1;whiteSpace=wrap;html=1;fillColor=none;strokeColor=#FFD700;arcSize=4;" vertex="1" parent="1">
          <mxGeometry x="907" y="244" width="203" height="470" as="geometry" />
        </mxCell>
        <mxCell id="o3mQSDozofzcP6N2_7Sw-43" value="Gold Layer" style="rounded=1;whiteSpace=wrap;html=1;fontSize=19;strokeColor=#FFD700;fillColor=#FFD700;fontStyle=1" vertex="1" parent="1">
          <mxGeometry x="907" y="194" width="201" height="40" as="geometry" />
        </mxCell>
        <mxCell id="o3mQSDozofzcP6N2_7Sw-44" value="fact_sales" style="rounded=1;whiteSpace=wrap;html=1;fontSize=17;strokeColor=#FFD700;fillColor=#FFD700;" vertex="1" parent="1">
          <mxGeometry x="917" y="323" width="181" height="40" as="geometry" />
        </mxCell>
        <mxCell id="o3mQSDozofzcP6N2_7Sw-45" value="dim_customers" style="rounded=1;whiteSpace=wrap;html=1;fontSize=17;strokeColor=#FFD700;fillColor=#FFD700;" vertex="1" parent="1">
          <mxGeometry x="918" y="422" width="181" height="40" as="geometry" />
        </mxCell>
        <mxCell id="o3mQSDozofzcP6N2_7Sw-46" value="dim_products" style="rounded=1;whiteSpace=wrap;html=1;fontSize=17;strokeColor=#FFD700;fillColor=#FFD700;" vertex="1" parent="1">
          <mxGeometry x="918" y="508.5" width="181" height="40" as="geometry" />
        </mxCell>
        <mxCell id="o3mQSDozofzcP6N2_7Sw-50" style="edgeStyle=orthogonalEdgeStyle;rounded=0;orthogonalLoop=1;jettySize=auto;html=1;" edge="1" parent="1">
          <mxGeometry relative="1" as="geometry">
            <mxPoint x="821" y="343" as="sourcePoint" />
            <mxPoint x="919" y="343" as="targetPoint" />
          </mxGeometry>
        </mxCell>
        <mxCell id="o3mQSDozofzcP6N2_7Sw-53" value="" style="endArrow=classic;html=1;rounded=0;entryX=0;entryY=0.5;entryDx=0;entryDy=0;jumpStyle=gap;" edge="1" parent="1" target="o3mQSDozofzcP6N2_7Sw-45">
          <mxGeometry width="50" height="50" relative="1" as="geometry">
            <mxPoint x="821" y="393" as="sourcePoint" />
            <mxPoint x="871" y="343" as="targetPoint" />
          </mxGeometry>
        </mxCell>
        <mxCell id="o3mQSDozofzcP6N2_7Sw-55" value="" style="endArrow=classic;html=1;rounded=0;entryX=0;entryY=0.5;entryDx=0;entryDy=0;jumpStyle=gap;" edge="1" parent="1" target="o3mQSDozofzcP6N2_7Sw-46">
          <mxGeometry width="50" height="50" relative="1" as="geometry">
            <mxPoint x="821" y="643" as="sourcePoint" />
            <mxPoint x="871" y="593" as="targetPoint" />
          </mxGeometry>
        </mxCell>
        <mxCell id="o3mQSDozofzcP6N2_7Sw-56" value="" style="endArrow=classic;html=1;rounded=0;entryX=0;entryY=0.5;entryDx=0;entryDy=0;jumpStyle=gap;" edge="1" parent="1" target="o3mQSDozofzcP6N2_7Sw-45">
          <mxGeometry width="50" height="50" relative="1" as="geometry">
            <mxPoint x="821" y="593" as="sourcePoint" />
            <mxPoint x="871" y="543" as="targetPoint" />
          </mxGeometry>
        </mxCell>
        <mxCell id="o3mQSDozofzcP6N2_7Sw-57" value="" style="endArrow=classic;html=1;rounded=0;entryX=0;entryY=0.5;entryDx=0;entryDy=0;jumpStyle=gap;" edge="1" parent="1" target="o3mQSDozofzcP6N2_7Sw-45">
          <mxGeometry width="50" height="50" relative="1" as="geometry">
            <mxPoint x="821" y="543" as="sourcePoint" />
            <mxPoint x="871" y="493" as="targetPoint" />
          </mxGeometry>
        </mxCell>
        <mxCell id="o3mQSDozofzcP6N2_7Sw-58" value="" style="endArrow=classic;html=1;rounded=0;entryX=0;entryY=0.5;entryDx=0;entryDy=0;jumpStyle=gap;" edge="1" parent="1" target="o3mQSDozofzcP6N2_7Sw-46">
          <mxGeometry width="50" height="50" relative="1" as="geometry">
            <mxPoint x="821" y="443" as="sourcePoint" />
            <mxPoint x="871" y="393" as="targetPoint" />
          </mxGeometry>
        </mxCell>
      </root>
    </mxGraphModel>
  </diagram>
</mxfile>
